<?xml version="1.0" encoding="utf-8"?>
<!-- Generator: Adobe Illustrator 27.5.0, SVG Export Plug-In . SVG Version: 6.00 Build 0)  -->
<svg version="1.1" xmlns="http://www.w3.org/2000/svg" xmlns:xlink="http://www.w3.org/1999/xlink" x="0px" y="0px"
	 viewBox="0 0 500 500" style="enable-background:new 0 0 500 500;" xml:space="preserve">
<g id="BACKGROUND">
	<g>
		<path style="fill:#E7F0F8;" d="M96.89,369.496V185.889c0-49.107,39.81-88.917,88.917-88.917h43.718
			c20.274,0,39.034,10.73,49.313,28.205l0.796,1.353c10.279,17.475,29.039,28.205,49.313,28.205h24.635
			c28.997,0,52.503,23.507,52.503,52.503v122.889c0,0.105-0.004,0.21-0.013,0.315l-3.097,37.159
			c-0.163,1.958-1.792,25.04-3.757,25.055l-298.773,1.22C98.337,393.891,96.89,371.604,96.89,369.496z"/>
		
			<line style="fill:#E7F0F8;stroke:#FFFFFF;stroke-width:2;stroke-miterlimit:10;" x1="295.004" y1="290.067" x2="295.004" y2="184.084"/>
		<g>
			<g>
				<path style="fill:#DAEAF8;" d="M223.424,301.78c0,0,45.63-61.734,35.612-83.083c-10.018-21.348-55.171,63.606-51.663,92.177
					C210.881,339.446,223.424,301.78,223.424,301.78z"/>
				<path style="fill:#DAEAF8;" d="M214.371,305.247c0,0,20.634-71.602-0.268-79.508c-20.902-7.905-31.096,99.775-31.096,99.775
					L214.371,305.247z"/>
				
					<line style="fill:none;stroke:#FFFFFF;stroke-linecap:round;stroke-miterlimit:10;" x1="247.908" y1="232.304" x2="216.018" y2="298.764"/>
				
					<line style="fill:none;stroke:#FFFFFF;stroke-linecap:round;stroke-miterlimit:10;" x1="211.651" y1="251.145" x2="199.292" y2="301.433"/>
				
					<line style="fill:none;stroke:#FFFFFF;stroke-linecap:round;stroke-miterlimit:10;" x1="248.877" y1="246.249" x2="239.662" y2="249.245"/>
				
					<line style="fill:none;stroke:#FFFFFF;stroke-linecap:round;stroke-miterlimit:10;" x1="223.927" y1="265.789" x2="227.212" y2="274.205"/>
				
					<line style="fill:none;stroke:#FFFFFF;stroke-linecap:round;stroke-miterlimit:10;" x1="197.605" y1="275.618" x2="203.315" y2="283.825"/>
			</g>
			
				<line style="fill:none;stroke:#FFFFFF;stroke-linecap:round;stroke-miterlimit:10;" x1="204.095" y1="255.835" x2="208.024" y2="263.88"/>
		</g>
		
			<ellipse transform="matrix(0.254 -0.9672 0.9672 0.254 150.4327 404.6525)" style="fill:#E7F0F8;" cx="337.543" cy="104.804" rx="30.736" ry="30.736"/>
		<polyline style="fill:#E7F0F8;stroke:#FFFFFF;stroke-width:2;stroke-miterlimit:10;" points="336.575,85.877 336.575,104.804 
			348.094,116.323 		"/>
		
			<rect x="148.012" y="79.438" style="fill:none;stroke:#FFFFFF;stroke-width:2;stroke-miterlimit:10;" width="90.817" height="79.487"/>
		
			<rect x="156.797" y="84.978" style="fill:none;stroke:#FFFFFF;stroke-width:2;stroke-miterlimit:10;" width="73.248" height="65.594"/>
		<path style="fill:#E7F0F8;stroke:#FFFFFF;stroke-width:2;stroke-miterlimit:10;" d="M267.804,207.191
			c-0.75-0.749,10.549-43.571,10.549-43.571h34.46l10.631,43.236C323.444,206.856,268.139,207.526,267.804,207.191z"/>
	</g>
</g>
<g id="OBJECTS">
	<ellipse style="fill:#E7F0F8;" cx="248.677" cy="395.095" rx="226.313" ry="10.98"/>
	<g>
		<path style="fill:#D98C78;" d="M161.01,220.182c0,0-0.329-8.241,4.697-11.628c5.025-3.387,9.941-2.622,10.706-1.966
			c0.765,0.656-4.588,6.664-4.588,6.664l-0.13,6.425C171.694,219.676,165.599,220.667,161.01,220.182z"/>
		<g>
			<path style="fill:#4977E2;" d="M199.393,218.553h-22.932c-2.716,0-4.918-2.202-4.918-4.918v-22.932
				c0-2.716,2.202-4.918,4.918-4.918h22.932c2.716,0,4.918,2.202,4.918,4.918v22.932
				C204.312,216.351,202.11,218.553,199.393,218.553z"/>
			<g>
				
					<text transform="matrix(1 0 0 1 177.3635 211.2235)" style="fill:#FFFFFF; font-family:'Montserrat-SemiBold'; font-size:27.9734px;">A</text>
			</g>
		</g>
		<path style="fill:#F0CE65;" d="M239.545,394.51h-80.06V273.277h47.932c17.744,0,32.128,14.384,32.128,32.128V394.51z"/>
		<rect x="98.796" y="327.896" style="fill:#F0C130;" width="111.052" height="66.485"/>
		<path style="fill:#F0C130;" d="M180.605,298.598H52.25v-54.116c0-16.373,13.273-29.646,29.647-29.646h69.062
			c16.373,0,29.647,13.273,29.647,29.646V298.598z"/>
		<path style="fill:#1F2D48;" d="M81.152,220.167c0,0-0.833-23.141,8.216-36.221c2.994-4.329,9.158-7.541,15.915-8.669
			c1.595-0.266,3.234-0.383,4.874-0.41l5.72-0.092l6.246,24.555c0,0,7.981,7.503,9.126,20.099
			C131.248,219.429,106.514,226.3,81.152,220.167z"/>
		<path style="fill:#D98C78;" d="M129.355,178.422v22.699c0,0.054,0,0.114-0.005,0.169c-0.087,7.617-6.285,13.761-13.919,13.761
			c-7.693,0-13.93-6.236-13.93-13.93v-15.447L129.355,178.422z"/>
		<path style="fill:#D98C78;" d="M104.871,198.007c0,2.83-2.294,5.124-5.124,5.124c-2.83,0-5.124-2.294-5.124-5.124
			c0-2.83,2.294-5.124,5.124-5.124C102.576,192.883,104.871,195.177,104.871,198.007z"/>
		<path style="fill:#D98C78;" d="M101.5,201.122v33.519c0,0,10.197,4.901,20.98-0.327l-7.842-27.122L101.5,201.122z"/>
		<circle style="fill:#C46851;" cx="113.99" cy="198.935" r="2.357"/>
		<path style="fill:#C46851;" d="M129.355,196.576v4.545c0,0.054,0,0.114-0.005,0.169c-1.299,0-2.354-1.055-2.354-2.354
			c0-1.299,1.055-2.36,2.354-2.36H129.355z"/>
		<path style="fill:#202F49;" d="M117.791,193.732c0,0.939-0.406,1.701-0.907,1.701c-0.501,0-0.907-0.762-0.907-1.701
			c0-0.939,0.406-1.701,0.907-1.701C117.385,192.031,117.791,192.793,117.791,193.732z"/>
		<path style="fill:#202F49;" d="M127.392,193.732c0,0.939-0.406,1.701-0.907,1.701c-0.501,0-0.907-0.762-0.907-1.701
			c0-0.939,0.406-1.701,0.907-1.701C126.985,192.031,127.392,192.793,127.392,193.732z"/>
		<path style="fill:none;stroke:#202F49;stroke-linecap:round;stroke-miterlimit:10;" d="M117.004,215.339
			c0,0-6.019,0.623-9.963-3.944"/>
		<rect x="99.622" y="192.855" style="fill:#D98C78;" width="6.773" height="8.989"/>
		<path style="fill:#1F2D48;" d="M101.267,192.855l5.709,0.194c3.194,0,6.238-1.352,8.38-3.721l8.659-9.579l5.32,12.342l0.692-0.437
			c1.975-1.247,2.86-3.669,2.155-5.896l-1.769-5.589c-1.022-3.227-4.017-5.421-7.402-5.421h-8.651
			c-8.829,0-15.986,7.157-15.986,15.986v2.101C98.374,192.837,101.161,192.962,101.267,192.855z"/>
		<path style="fill:none;stroke:#202F49;stroke-linecap:round;stroke-miterlimit:10;" d="M98.128,196.085l3.214,1.236
			c0.158,0.061,0.185,0.273,0.047,0.371l-3.055,2.182"/>
		<g>
			<g>
				<path style="fill:#DB5045;" d="M159.374,254.607c-1.626,0.919-4.404,1.892-7.824,2.844c-2.24,0.625-4.752,1.245-7.394,1.832
					c-4.496,0.995-9.368,1.914-13.897,2.637c-6.263,1.006-11.874,1.642-14.946,1.642c-14.082,0-26.75-6.024-35.574-15.637
					l11.874-10.357h0.005l0.451-0.397l3.224-2.811l0.56-0.489l0.968-0.843l0.56-0.489v-0.005l3.518-3.066h0.005l0.152-0.136
					c0,0,0.027,0.022,0.076,0.054c0.348,0.245,1.892,1.261,4.23,1.903c0.006,0,0.006,0.005,0.011,0.005
					c0.006,0,0.011,0.005,0.016,0.005c3.583,0.968,9.02,1.049,14.881-3.893l10.771,1.561c5.111,0.739,9.77,3.181,13.266,6.861
					c0.141,0.147,0.283,0.299,0.413,0.451c0.854,0.946,1.631,1.968,2.322,3.061l0.342,0.424l0.408,0.506l1.865,2.305l0.435,0.538
					l3.877,4.801l3.24,4.018h0.005L159.374,254.607z"/>
			</g>
		</g>
		<g>
			<g>
				<path style="fill:#DB5045;" d="M145.825,267.194c-1.115,0.908-2.267,1.772-3.463,2.572c-0.902,0.62-1.832,1.207-2.784,1.756
					c-0.196,0.114-0.397,0.228-0.598,0.342c-0.294,0.163-0.587,0.326-0.881,0.484c-0.163,0.087-0.332,0.174-0.495,0.261
					c-1.191,0.62-2.409,1.196-3.654,1.718c-0.19,0.081-0.375,0.158-0.565,0.234c-0.011,0-0.016,0.005-0.022,0.005
					c-0.315,0.087-0.544,0.174-0.658,0.261c-0.712,0.277-1.435,0.533-2.164,0.777c-0.207,0.071-0.413,0.136-0.625,0.201
					c-4.605,1.463-9.515,2.251-14.604,2.251c-6.927,0-13.511-1.457-19.464-4.089c-0.234-0.098-0.468-0.201-0.696-0.31
					c-5.513-2.534-10.466-6.078-14.615-10.395c-0.136-0.136-0.266-0.272-0.391-0.408c-0.141-0.147-0.272-0.288-0.408-0.435
					c-0.897-0.979-1.756-1.995-2.572-3.045c-0.152-0.19-0.299-0.381-0.435-0.576c-1.202-1.582-2.3-3.24-3.295-4.964
					c0.446-1.142,1.174-2.833,2.012-4.714c2.207-4.948,5.611-9.21,9.836-12.445c0.228-0.179,0.462-0.353,0.696-0.522
					c1.99-1.435,4.148-2.653,6.437-3.616c0.179-0.076,0.359-0.152,0.544-0.223c0.277-0.114,0.56-0.223,0.843-0.326l2.632-0.935
					l0.517-0.185l3.947-1.403h0.005l0.228-0.082l0.413-0.147c0,0,1.158,0.788,3.817,2.05c0.006,0,0.006,0.005,0.011,0.005
					c0.006,0,0.011,0.005,0.016,0.005c5.269,2.479,14.479,7.112,22.797,12.75c0,0.005,0.005,0.005,0.005,0.005
					c0.527,0.353,1.055,0.718,1.577,1.087c0.152,0.103,0.305,0.212,0.457,0.321c5.992,4.263,11.276,9.025,13.93,13.821
					C145.629,261.936,146.292,264.595,145.825,267.194z"/>
			</g>
		</g>
		<path style="fill:none;stroke:#202F49;stroke-linecap:round;stroke-miterlimit:10;" d="M118.884,200.357
			c0,0,0.757,3.026,3.909,2.27"/>
		<path style="fill:#DB5045;" d="M93.368,270.733l-6.002,34.536c0,0,36.046,11.709,68.416-16.129l-12.668-29.003"/>
		<path style="fill:#D98C78;" d="M101.545,229.479c0,0,8.284,12.349,14.593,10.84c6.309-1.509,4.132-12.912,4.132-12.912
			L101.545,229.479z"/>
		<path style="fill:#D98C78;" d="M166.534,211.64c0,0,5.995-2.725,7.412-1.635c1.417,1.09-6.137,6.538-6.137,6.538
			S165.771,214.583,166.534,211.64z"/>
		
			<line style="fill:none;stroke:#202F49;stroke-linecap:round;stroke-miterlimit:10;" x1="111.588" y1="180.098" x2="107.598" y2="185.529"/>
		<path style="fill:#4977E2;" d="M124.783,334.744h31.805l-19.295,59.695h25.928l24.133-45.926l15.749,45.863h24.242l-13.139-76.998
			c-2.63-15.414-15.898-26.747-31.534-26.936l-84.998-0.638v0C86.913,310.213,101.711,334.744,124.783,334.744z"/>
		<path style="fill:#D98C78;" d="M182.671,290.442c0,0-4.672-7.974-21.03-9.122l0.861,9.412L182.671,290.442z"/>
		<path style="fill:#DB5045;" d="M73.437,253.835c0,0-4.356,17.07-0.758,34.659l89.823,2.237c0,0,2.583-5.107,1.148-9.699
			C163.65,281.033,84.796,253.715,73.437,253.835z"/>
		<path style="fill:none;stroke:#202F49;stroke-linecap:round;stroke-miterlimit:10;" d="M97.932,257.5c0,0-1.435,3.157-0.574,8.609
			l51.943,10.331"/>
		<path style="fill:none;stroke:#202F49;stroke-linecap:round;stroke-miterlimit:10;" d="M151.603,290.885l29.448,4.386
			c13.378,1.992,21.37,15.972,16.301,28.511l-9.998,24.731"/>
		<g>
			<path style="fill:#DB5045;" d="M170.019,255.314c-0.038,0.19-0.087,0.381-0.136,0.571c-0.337,1.337-0.718,2.604-1.147,3.779
				c-0.065,0.174-0.125,0.348-0.196,0.516c-1.593,4.132-3.822,7.084-6.921,7.895c-0.005,0.005-0.005,0-0.011,0
				c-2.577,0.691-5.616,0.555-8.759-0.065c-0.185-0.033-0.364-0.071-0.549-0.114c-1.006-0.212-2.017-0.473-3.028-0.767v-0.006
				c-0.196-0.054-0.391-0.114-0.587-0.174c-2.175-0.663-4.317-1.484-6.323-2.338c-6.193-2.648-11.015-5.665-11.015-5.665
				l-1.087-2.18l-5.616-11.255l-0.245-0.495l-4.127-8.27l7.916,2.148c0,0.005,0.005,0.005,0.005,0.005l2.142,0.582l0.625,0.169
				l22.264,6.046l0.745-2.936l4.382-17.268l0.147-0.571l0.821-3.235l0.141-0.56l0.995-3.909l0.136-0.549l0.419-1.642l10.684-0.506
				C171.694,214.52,173.841,239.394,170.019,255.314z"/>
		</g>
		<path style="fill:none;stroke:#202F49;stroke-linecap:round;stroke-miterlimit:10;" d="M152.452,245.917
			c0,0-0.913,1.223-1.772,5.693"/>
		
			<line style="fill:none;stroke:#202F49;stroke-linecap:round;stroke-miterlimit:10;" x1="137.216" y1="250.099" x2="144.78" y2="265.971"/>
		<path style="fill:none;stroke:#202F49;stroke-linecap:round;stroke-miterlimit:10;" d="M167.851,211.56
			c0,0,1.339-1.517,3.481-1.964"/>
		<path style="fill:none;stroke:#5082F7;stroke-linecap:round;stroke-miterlimit:10;" d="M101.9,310.022l67.542,3.434
			c3.721,0.189,6.209,3.908,4.965,7.42L150.63,387.99"/>
		<path style="fill:#1F2D48;" d="M140.571,384.585l-3.278,9.854l38.937,0.122c1.591,0.005,2.008-2.196,0.526-2.774l-10.474-4.086
			L140.571,384.585z"/>
		<path style="fill:#1F2D48;" d="M200.514,386.482l2.588,7.894l38.376,0.724c0.952,0.018,1.199-1.31,0.303-1.635l-15.374-5.579
			L200.514,386.482z"/>
		<path style="fill:#F0CE65;" d="M115.563,394.51H43.872c-4.622,0-8.368-3.747-8.368-8.368V284.907c0-6.423,5.207-11.63,11.63-11.63
			h36.301c17.744,0,32.128,14.384,32.128,32.128V394.51z"/>
	</g>
	<g>
		<path style="fill:#F0CE65;" d="M259.095,394.51h80.06V273.277h-47.932c-17.744,0-32.128,14.384-32.128,32.128V394.51z"/>
		<path style="fill:#F0C130;" d="M318.035,335.445H446.39v-90.963c0-16.373-13.273-29.646-29.647-29.646h-69.062
			c-16.373,0-29.647,13.273-29.647,29.646V335.445z"/>
		
			<rect x="306.108" y="327.896" transform="matrix(-1 -1.224647e-16 1.224647e-16 -1 705.9514 722.276)" style="fill:#F0C130;" width="93.736" height="66.485"/>
		<ellipse style="fill:#1F2D48;" cx="377.966" cy="220.542" rx="15.621" ry="14.602"/>
		<ellipse style="fill:#1F2D48;" cx="388.663" cy="204.919" rx="7.855" ry="7.342"/>
		<ellipse style="fill:#1F2D48;" cx="370.706" cy="201.301" rx="7.855" ry="7.342"/>
		<path style="fill:#D98C78;" d="M360.394,208.493v18.941c0,0.045,0,0.095,0.005,0.141c0.073,6.356,5.245,11.483,11.614,11.483
			c6.42,0,11.624-5.204,11.624-11.624v-12.889L360.394,208.493z"/>
		<path style="fill:#D98C78;" d="M380.825,224.836c0,2.361,1.914,4.276,4.276,4.276c2.361,0,4.276-1.914,4.276-4.276
			c0-2.362-1.914-4.276-4.276-4.276C382.739,220.56,380.825,222.475,380.825,224.836z"/>
		<path style="fill:#D98C78;" d="M383.637,227.435v27.97c0,0-8.509,4.09-17.507-0.273l6.544-22.632L383.637,227.435z"/>
		<circle style="fill:#C46851;" cx="373.215" cy="225.611" r="1.967"/>
		<path style="fill:#C46851;" d="M360.394,223.642v3.793c0,0.045,0,0.095,0.005,0.141c1.084,0,1.964-0.88,1.964-1.964
			s-0.88-1.969-1.964-1.969H360.394z"/>
		<path style="fill:#202F49;" d="M370.043,221.269c0,0.784,0.339,1.419,0.757,1.419c0.418,0,0.757-0.635,0.757-1.419
			c0-0.784-0.339-1.419-0.757-1.419C370.382,219.85,370.043,220.485,370.043,221.269z"/>
		<path style="fill:#202F49;" d="M362.032,221.269c0,0.784,0.339,1.419,0.757,1.419c0.418,0,0.757-0.635,0.757-1.419
			c0-0.784-0.339-1.419-0.757-1.419C362.371,219.85,362.032,220.485,362.032,221.269z"/>
		<path style="fill:none;stroke:#202F49;stroke-linecap:round;stroke-miterlimit:10;" d="M370.7,239.299c0,0,5.023,0.52,8.313-3.291
			"/>
		
			<rect x="379.552" y="220.537" transform="matrix(-1 -1.224647e-16 1.224647e-16 -1 764.757 448.5758)" style="fill:#D98C78;" width="5.652" height="7.501"/>
		<path style="fill:#1F2D48;" d="M383.831,220.537l-4.764,0.162c-2.665,0-5.205-1.128-6.992-3.105l-7.226-7.993L360.41,219.9
			l-0.577-0.364c-1.648-1.041-2.387-3.062-1.798-4.92l1.476-4.664c0.853-2.693,3.352-4.523,6.177-4.523h7.219
			c7.367,0,13.34,5.972,13.34,13.34v1.753C386.246,220.522,383.92,220.626,383.831,220.537z"/>
		<path style="fill:none;stroke:#202F49;stroke-linecap:round;stroke-miterlimit:10;" d="M386.451,223.232l-2.682,1.032
			c-0.132,0.051-0.154,0.228-0.039,0.31l2.549,1.821"/>
		<path style="fill:#D98C78;" d="M383.6,251.098c0,0-6.913,10.305-12.177,9.046c-5.264-1.259-3.448-10.774-3.448-10.774
			L383.6,251.098z"/>
		
			<line style="fill:none;stroke:#202F49;stroke-linecap:round;stroke-miterlimit:10;" x1="375.219" y1="209.892" x2="378.549" y2="214.424"/>
		<path style="fill:#1F2D48;" d="M367.992,229.495c0,1.194-0.696,2.162-1.554,2.162s-1.554-0.968-1.554-2.162
			c0-1.194,0.696-2.162,1.554-2.162S367.992,228.301,367.992,229.495z"/>
		<path style="fill:#DB5045;" d="M399.034,299.914h-72.239c-0.445,0-0.887,0.012-1.328,0.035
			c-11.178,0.587-20.088,9.622-21.201,20.759l-5.089,50.887l18.252,1.043l10.857-43.858l9.207,48.312l17.209-1.043l-1.043-48.498
			h56.848L399.034,299.914z"/>
		<g>
			<path style="fill:#4977E2;" d="M367.992,246.854c0,0,3.258,4.706,15.93,1.086l9.415,2.811c4.273,1.276,8.195,3.519,11.46,6.556
				l12.764,11.87c5.152,4.791,1.866,13.419-5.168,13.569l-14.714,0.313c0,0-1.086-6.517-7.965-7.965L367.992,246.854z"/>
		</g>
		<g>
			<path style="fill:#4977E2;" d="M417.265,273.591l-3.815,3.06l-0.765,0.612l-7.018,5.622l-17.593,14.093l-0.746,0.602
				l-2.906,2.333h-33.311l2.199-22.153c0,0-2.868,2.161-6.425,4.953c-5.469,4.293-13.491,2.524-16.627-3.681l-3.165-6.578
				l-0.545-1.138l-7.792-16.235l7.219-5.813l5.096,5.106l0.87,0.87l9.714,9.733l2.362-2.811l0.631-0.746l3.499-4.169
				c1.511-1.807,3.251-3.385,5.163-4.733c0.268-0.182,0.545-0.363,0.813-0.545c2.237-1.425,4.675-2.534,7.257-3.26l6.654-1.635
				l0.22,0.124l0.01,0.01h0.009l0.096,0.048h0.01l2.696,1.453l0.01,0.01l30.835,16.608l4.188,2.247L417.265,273.591z"/>
		</g>
		<path style="fill:#1F2D48;" d="M337.493,377.093l17.209-1.043l0.793,2.018c0.354,0.902,0.042,1.928-0.754,2.481l-15.678,10.874
			c-1.755,1.217-4.106-0.295-3.726-2.397L337.493,377.093z"/>
		<path style="fill:#1F2D48;" d="M299.495,370.947l17.17,1.554l0.521,2.293c0.191,0.84-0.221,1.702-0.995,2.081l-17.298,8.475
			c-1.918,0.94-4.015-0.909-3.324-2.93L299.495,370.947z"/>
		<path style="fill:none;stroke:#202F49;stroke-linecap:round;stroke-miterlimit:10;" d="M328.286,328.78l-0.877-6.742
			c-1.213-9.329,5.184-17.941,14.465-19.474l14.592-2.411"/>
		<path style="fill:#D98C78;" d="M396.951,281.053l-5.823-4.783c0,0-8.318,10.606-4.575,16.012L396.951,281.053z"/>
		<path style="fill:#D98C78;" d="M326.343,249.908c0,0-3.77-8.081-5.597-8.396c-1.334-0.23,0.139,4.169,0.139,4.169
			s-11.117-4.03-11.812-3.057c-0.695,0.973,0.278,4.447,1.807,5.976c1.529,1.529,8.202,6.729,8.202,6.729
			S325.227,251.101,326.343,249.908z"/>
		<g>
			<path style="fill:#5082F7;" d="M413.918,277.674c-0.153-0.354-0.306-0.688-0.468-1.023c-1.989-4.197-4.465-7.066-7.343-9.073
				c-1.31-0.918-2.706-1.654-4.188-2.247c-4.838-1.979-10.517-2.495-16.866-3.079c-1.826-0.163-3.7-0.335-5.641-0.545
				c-0.516-0.057-1.042-0.115-1.568-0.182c-10.527-1.253-19.266-6.186-23.721-9.551c-0.268,0.182-0.545,0.363-0.813,0.545
				c4.494,3.557,13.261,8.624,24.419,9.953c0.841,0.105,1.673,0.191,2.486,0.277c1.625,0.172,3.203,0.316,4.752,0.459
				c12.783,1.166,22.105,2.017,27.718,14.055c0.124,0.258,0.249,0.526,0.363,0.793c0.076,0.182,0.249,0.287,0.43,0.287
				c0.067,0,0.134-0.009,0.191-0.038C413.918,278.2,414.024,277.913,413.918,277.674z"/>
		</g>
		<g>
			<path style="fill:#5082F7;" d="M389.71,299.827c-0.086,0.057-0.182,0.077-0.268,0.077c-0.153,0-0.306-0.067-0.402-0.201
				c-0.019-0.029-0.574-0.832-1.712-2.123c-2.744-3.126-8.853-9.102-18.663-13.577c-9.073-4.14-18.826-14.753-24.649-21.838
				l0.631-0.746c5.756,7.018,15.441,17.621,24.41,21.713c9.982,4.551,16.216,10.651,19.017,13.845
				c1.157,1.319,1.74,2.151,1.759,2.18C389.977,299.378,389.929,299.674,389.71,299.827z"/>
		</g>
		<g>
			<path style="fill:#5082F7;" d="M331.941,255.243c-0.746,6.473-2.84,12.573-4.847,17.21l-0.545-1.138
				c1.951-4.647,3.91-10.632,4.522-16.942L331.941,255.243z"/>
		</g>
		<path style="fill:#F0CE65;" d="M383.591,394.663h71.691c4.622,0,8.368-3.747,8.368-8.368V285.06c0-6.423-5.207-11.63-11.63-11.63
			h-36.301c-17.744,0-32.128,14.384-32.128,32.128V394.663z"/>
		<path style="fill:none;stroke:#202F49;stroke-linecap:round;stroke-miterlimit:10;" d="M391.128,276.27
			c0,0,5.99-8.909,12.923-10.132"/>
		
			<line style="fill:none;stroke:#202F49;stroke-linecap:round;stroke-miterlimit:10;" x1="353.306" y1="277.758" x2="354.709" y2="268.381"/>
		
			<ellipse transform="matrix(0.8962 -0.4436 0.4436 0.8962 -62.4362 169.4445)" style="fill:#4977E2;" cx="330.913" cy="218.159" rx="15.536" ry="15.536"/>
		<polygon style="fill:#4977E2;" points="331.99,233.626 349.944,233.145 340.325,225.771 		"/>
		<path style="fill:none;stroke:#FFFFFF;stroke-width:2;stroke-miterlimit:10;" d="M322.558,222.402c0,0,0.632-7.268,4.266-7.426
			c3.634-0.158,0.79,7.426,3.792,6.794c3.002-0.632,4.74-7.11,6.636-5.53c1.896,1.58,1.264,6.004,3.16,4.898"/>
	</g>
	<g>
		<path style="fill:#388C75;" d="M279.392,331.01c0,0-14.91-31.837-7.522-37.476c7.389-5.639,11.081,33.8,11.081,33.8
			s0.282-25.939,7.673-26.366c8.786-0.507-3.785,30.449-3.785,30.449L279.392,331.01z"/>
		<rect x="273.396" y="330.97" style="fill:#4977E2;" width="19.592" height="16.752"/>
		
			<line style="fill:none;stroke:#202F49;stroke-linecap:round;stroke-miterlimit:10;" x1="273.815" y1="334.503" x2="292.739" y2="334.503"/>
	</g>
	<g>
		<path style="fill:#1F2D48;" d="M360.62,351.737H257.716h-13.943c-1.128,0-2.043-0.915-2.043-2.043l0,0
			c0-1.128,0.915-2.043,2.043-2.043H360.62c1.128,0,2.043,0.914,2.043,2.043l0,0C362.663,350.822,361.749,351.737,360.62,351.737z"
			/>
		<g>
			<line style="fill:#1F2D48;" x1="251.17" y1="394.933" x2="257.716" y2="350.314"/>
			<polygon style="fill:#1F2D48;" points="250.675,394.861 254.211,349.8 261.22,350.828 251.665,395.006 			"/>
		</g>
		<g>
			<line style="fill:#1F2D48;" x1="349.408" y1="394.933" x2="342.862" y2="350.314"/>
			<polygon style="fill:#1F2D48;" points="348.913,395.006 339.357,350.828 346.366,349.8 349.902,394.861 			"/>
		</g>
	</g>
</g>
</svg>
